<svg width="80" height="80" viewBox="0 0 80 80" fill="none" xmlns="http://www.w3.org/2000/svg">
<path fill-rule="evenodd" clip-rule="evenodd" d="M28.5 9H28V9.5V14H21.5H21V14.5V66H12V67H30H30.5H36H36.5H39.5H40H40.5H43.5H44H49.5H50H68V66H59V14.5V14H58.5H52V9.5V9H51.5H28.5ZM58 66V15H52H51.5H28.5H28H22V66H30V55.5C30 54.1193 31.1191 53 32.5 53H47.5C48.8809 53 50 54.1193 50 55.5V66H58ZM49 66V58H31V66H36V60.5V60H36.5H39.5H40H40.5H43.5H44V60.5V66H49ZM43 66V61H40.5V66H43ZM39.5 66V61H37V66H39.5ZM51 14V10H29V14H51ZM32.5 54C31.6719 54 31 54.6716 31 55.5V57H49V55.5C49 54.6716 48.3281 54 47.5 54H32.5ZM27 42H27.5H32.5H33V42.5V49.5V50H32.5H27.5H27V49.5V42.5V42ZM28 43V49H32V43H28ZM37.5 42H37V42.5V49.5V50H37.5H42.5H43V49.5V42.5V42H42.5H37.5ZM38 49V43H42V49H38ZM47 42H47.5H52.5H53V42.5V49.5V50H52.5H47.5H47V49.5V42.5V42ZM48 43V49H52V43H48ZM27.5 31H27V31.5V38.5V39H27.5H32.5H33V38.5V31.5V31H32.5H27.5ZM28 38V32H32V38H28ZM37 31H37.5H42.5H43V31.5V38.5V39H42.5H37.5H37V38.5V31.5V31ZM38 32V38H42V32H38ZM47.5 31H47V31.5V38.5V39H47.5H52.5H53V38.5V31.5V31H52.5H47.5ZM48 38V32H52V38H48ZM27 20H27.5H32.5H33V20.5V27.5V28H32.5H27.5H27V27.5V20.5V20ZM28 21V27H32V21H28ZM37.5 20H37V20.5V27.5V28H37.5H42.5H43V27.5V20.5V20H42.5H37.5ZM38 27V21H42V27H38ZM47 20H47.5H52.5H53V20.5V27.5V28H52.5H47.5H47V27.5V20.5V20ZM48 21V27H52V21H48Z" fill="black"/>
</svg>
