<svg width="80" height="80" viewBox="0 0 80 80" fill="none" xmlns="http://www.w3.org/2000/svg">
<path fill-rule="evenodd" clip-rule="evenodd" d="M18.5 11H18V11.5V68.5V69H18.5H61.5H62V68.5V11.5V11H61.5H18.5ZM19 68V12H61V68H19ZM28.5 55.625C27.4644 55.625 26.625 56.4644 26.625 57.5C26.625 58.5356 27.4644 59.375 28.5 59.375C29.5356 59.375 30.375 58.5356 30.375 57.5C30.375 56.4644 29.5356 55.625 28.5 55.625ZM27.375 57.5C27.375 56.8787 27.8787 56.375 28.5 56.375C29.1213 56.375 29.625 56.8787 29.625 57.5C29.625 58.1213 29.1213 58.625 28.5 58.625C27.8787 58.625 27.375 58.1213 27.375 57.5ZM26.625 50.5C26.625 49.4644 27.4644 48.625 28.5 48.625C29.5356 48.625 30.375 49.4644 30.375 50.5C30.375 51.5356 29.5356 52.375 28.5 52.375C27.4644 52.375 26.625 51.5356 26.625 50.5ZM28.5 49.375C27.8787 49.375 27.375 49.8787 27.375 50.5C27.375 51.1213 27.8787 51.625 28.5 51.625C29.1213 51.625 29.625 51.1213 29.625 50.5C29.625 49.8787 29.1213 49.375 28.5 49.375ZM28.5 41.625C27.4644 41.625 26.625 42.4644 26.625 43.5C26.625 44.5356 27.4644 45.375 28.5 45.375C29.5356 45.375 30.375 44.5356 30.375 43.5C30.375 42.4644 29.5356 41.625 28.5 41.625ZM27.375 43.5C27.375 42.8787 27.8787 42.375 28.5 42.375C29.1213 42.375 29.625 42.8787 29.625 43.5C29.625 44.1213 29.1213 44.625 28.5 44.625C27.8787 44.625 27.375 44.1213 27.375 43.5ZM54 58H32V57H54V58ZM32 51H54V50H32V51ZM54 44H32V43H54V44ZM37.5003 22.1789C38.6693 22.5752 39.3273 23.493 39.3504 24.2711H35.2456C35.0053 23.9913 34.8789 23.8138 34.815 23.6566C34.7606 23.5226 34.7387 23.3708 34.8068 23.1094C35.0235 22.2779 36.1415 21.7182 37.5003 22.1789ZM44.9964 24.2711H40.8915C40.9146 23.493 41.5727 22.5752 42.7417 22.1789C44.1005 21.7182 45.2184 22.2779 45.4351 23.1094C45.5032 23.3708 45.4814 23.5226 45.4269 23.6566C45.363 23.8138 45.2366 23.9913 44.9964 24.2711ZM46.3263 24.0047C46.2891 24.0962 46.2447 24.1848 46.1949 24.2711H47.5H48V24.7711V28.4711V28.9711H47.5H46.8V35.8711V36.3711H46.3H33.7H33.2V35.8711V28.9711H32.5H32V28.4711V24.7711V24.2711H32.5H34.0471C33.9972 24.1848 33.9529 24.0962 33.9157 24.0047C33.7577 23.616 33.7461 23.2244 33.8598 22.7883C34.2699 21.2143 36.1007 20.6512 37.7524 21.2112C38.8192 21.5728 39.7242 22.3734 40.121 23.3191C40.5177 22.3734 41.4227 21.5728 42.4895 21.2112C44.1413 20.6512 45.972 21.2143 46.3822 22.7883C46.4958 23.2244 46.4843 23.616 46.3263 24.0047ZM46.375 27.9711V27.9711H47V25.2711H42.5V27.9711H46.375ZM41.5 35.3711V25.2711H38.7416V35.3711H41.5ZM45.8 35.3711H42.5V28.9711H45.8V35.3711ZM37.7416 35.3711V28.9711H34.2V35.3711H37.7416ZM37.7416 25.2711H33V27.9711H33.5V27.9711H37.7416V25.2711Z" fill="black"/>
</svg>
