<svg width="80" height="81" viewBox="0 0 80 81" fill="none" xmlns="http://www.w3.org/2000/svg">
<path d="M53.0329 43.8474C53.7527 43.8474 54.3362 43.2711 54.3362 42.5604C54.3362 41.8496 53.7527 41.2734 53.0329 41.2734C52.3131 41.2734 51.7296 41.8496 51.7296 42.5604C51.7296 43.2711 52.3131 43.8474 53.0329 43.8474Z" stroke="black" stroke-miterlimit="10"/>
<path d="M24.0351 23.8276L51.7295 14.771L55.0526 23.8276" stroke="black" stroke-miterlimit="10"/>
<path d="M52.6199 51.903C50.3617 51.903 48.1959 50.9489 46.5992 49.2504C45.0024 47.552 44.1053 45.2484 44.1053 42.8464C44.1053 40.4445 45.0024 38.1408 46.5992 36.4424C48.1959 34.7439 50.3617 33.7898 52.6199 33.7898H66V51.903H52.6199Z" stroke="black" stroke-miterlimit="10"/>
<path d="M66 62.7709L66 23.8274L14 23.8274L14 62.7709L66 62.7709Z" stroke="black"/>
</svg>
